<?xml version="1.0" ?><svg height="58px" version="1.1" viewBox="0 0 47 58" width="47px" xmlns="http://www.w3.org/2000/svg" xmlns:xlink="http://www.w3.org/1999/xlink"><title/><desc/><defs/><g fill="none" fill-rule="evenodd" id="Page-1" stroke="none" stroke-width="1"><g id="015---Stocking"><path d="M23,1.3 L23,2.99 L22.09,7.3 L15,7.3 L15,1.3 C15.0016474,0.748399067 15.4483991,0.301647401 16,0.3 L22,0.3 C22.5516009,0.301647401 22.9983526,0.748399067 23,1.3 Z" fill="#F4CD1E" id="Shape"/><path d="M33.99,6.11 L33.23,7.3 L22.09,7.3 C22.0294098,6.97013022 21.999283,6.63538742 22,6.3 C21.9980527,3.02391031 24.6257589,0.352646712 27.9014379,0.300738537 C31.1771169,0.248830363 33.888143,2.83549354 33.99,6.11 Z" fill="#5496CE" id="Shape"/><rect fill="#FAEDBD" fill-rule="nonzero" height="7" id="Rectangle-path" width="1" x="18.5" y="0.3"/><circle cx="29" cy="5.3" fill="#BDDCF3" fill-rule="nonzero" id="Oval" r="2"/><path d="M33.23,7.31737 L33.99,6.12737 L35.96,3.06737 C37.646081,0.442354372 41.0637156,-0.450576523 43.8183452,1.01420752 C46.5729747,2.47899157 47.7435892,5.81174025 46.51,8.67737 C46.3826747,8.98677263 46.2287651,9.28455421 46.05,9.56737 L44.42,12.08737 C44.0356695,12.6969783 43.3504491,13.0496041 42.631003,13.0080176 C41.9115569,12.9664311 41.2715305,12.5372014 40.96,11.88737 C40.8784699,11.7444066 40.8210351,11.5889946 40.79,11.42737 C40.7066396,11.0575754 40.7344728,10.671389 40.87,10.31737 C40.9147769,10.1759885 40.9787041,10.0414049 41.06,9.91737 L42.68,7.39737 C43.0670497,6.79714424 43.1041302,6.03592341 42.7772507,5.40092086 C42.4503711,4.76591831 41.8092893,4.35379428 41.0958894,4.32004574 C40.3824894,4.2862972 39.7053652,4.63606135 39.32,5.23737 L37.91,7.42737" fill="#D8625E" id="Shape"/><path d="M37,13 L37,50 C37.0005785,52.1219092 36.1579095,54.1570766 34.6574931,55.6574931 C33.1570766,57.1579095 31.1219092,58.0005785 29,58 L9,58 C4.30557963,58 0.5,54.1944204 0.5,49.5 C0.5,44.8055796 4.30557963,41 9,41 L13,41 C14.1032223,40.9967543 14.9967543,40.1032223 15,39 L15,13 L37,13 Z" fill="#EBECED" id="Shape"/><path d="M40.96,11.57 C40.778288,12.4059887 40.3897638,13.1830372 39.83,13.83 C39.0776646,14.5776327 38.0606411,14.9980982 37,15 L15,15 C12.790861,15 11,13.209139 11,11 C11,8.790861 12.790861,7 15,7 L37,7 C37.3066349,7.00024132 37.6121395,7.03717046 37.91,7.11 C39.3598432,7.44332628 40.502077,8.55854778 40.87,10" fill="#EBECED" id="Shape"/><path d="M37,15 L37,46.2 C33.7103885,45.5322984 30.3051046,46.5580277 27.9315661,48.9315661 C25.5580277,51.3051046 24.5322984,54.7103885 25.2,58 L9,58 C8.41199238,58.0010591 7.82548051,57.9407322 7.25,57.82 C11.1840342,56.9912725 13.9999429,53.5203749 13.9999429,49.5 C13.9999429,45.4796251 11.1840342,42.0087275 7.25,41.18 C7.82548051,41.0592678 8.41199238,40.9989409 9,41 L13,41 C14.1032223,40.9967543 14.9967543,40.1032223 15,39 L15,15 L37,15 Z" fill="#ED634C" id="Shape"/><polygon fill="#944143" id="Shape" points="37 37 29.64 29.64 23.94 23.94 15 15 20 15 25.59 20.59 27.438 22.438 31.35 26.35 37 32"/><polygon fill="#F4CD1E" id="Shape" points="25.954 18.7 28.087 23.022 32.856 23.715 29.405 27.079 30.22 31.829 25.954 29.586 21.688 31.829 22.503 27.079 19.051 23.715 23.821 23.022"/></g></g></svg>